<svg xmlns="http://www.w3.org/2000/svg" width="64" height="64" viewBox="0 0 64 64" fill="none">
  <defs>
    <linearGradient id="bg" x1="10" y1="8" x2="54" y2="56" gradientUnits="userSpaceOnUse">
      <stop stop-color="#EF4444"/>
      <stop offset="1" stop-color="#3B82F6"/>
    </linearGradient>
    <linearGradient id="web" x1="22" y1="19" x2="42" y2="45" gradientUnits="userSpaceOnUse">
      <stop stop-color="#FEE2E2"/>
      <stop offset="1" stop-color="#DBEAFE"/>
    </linearGradient>
  </defs>
  <rect x="6" y="6" width="52" height="52" rx="16" fill="url(#bg)"/>
  <path
    d="M32 16L43 22.5V35.5L32 42L21 35.5V22.5L32 16ZM32 20.4L24.8 24.6L32 28.8L39.2 24.6L32 20.4ZM24 27.8V33.9L30 37.4V31.3L24 27.8ZM34 31.3V37.4L40 33.9V27.8L34 31.3Z"
    fill="url(#web)"
  />
  <path
    d="M32 16V42M21 22.5L43 35.5M43 22.5L21 35.5M24 24.6L40 33.9M40 24.6L24 33.9"
    stroke="#0F172A"
    stroke-opacity=".28"
    stroke-width="1.5"
    stroke-linecap="round"
    stroke-linejoin="round"
  />
</svg>
